<svg width="140" height="30" viewBox="0 0 140 30" fill="none" xmlns="http://www.w3.org/2000/svg">
<path d="M120.418 19.4554L124.965 18.9182C125.477 22.5125 127.153 24.3097 129.992 24.3097C131.399 24.3097 132.506 23.9451 133.311 23.216C134.117 22.4741 134.52 21.5596 134.52 20.4723C134.52 19.8327 134.38 19.2891 134.098 18.8414C133.817 18.3937 133.388 18.0292 132.813 17.7478C132.237 17.4536 130.843 16.9675 128.63 16.2896C126.647 15.6884 125.195 15.036 124.275 14.3325C123.354 13.629 122.618 12.708 122.068 11.5696C121.531 10.4184 121.262 9.18408 121.262 7.86658C121.262 6.33164 121.608 4.95019 122.298 3.72224C123.002 2.49428 123.968 1.56692 125.195 0.940153C126.423 0.313384 127.939 0 129.743 0C132.454 0 134.571 0.735494 136.094 2.20648C137.616 3.67747 138.422 5.78162 138.511 8.51893L133.849 8.76836C133.644 7.259 133.203 6.20373 132.525 5.60254C131.847 5.00136 130.881 4.70076 129.628 4.70076C128.374 4.70076 127.408 4.96298 126.73 5.48742C126.052 6.01186 125.714 6.66421 125.714 7.44447C125.714 8.21195 126.021 8.8579 126.634 9.38234C127.248 9.90678 128.662 10.4824 130.875 11.1092C133.216 11.7871 134.904 12.5034 135.94 13.2581C136.989 14 137.788 14.9657 138.338 16.1553C138.888 17.3321 139.163 18.7647 139.163 20.4531C139.163 22.8962 138.409 24.9492 136.899 26.6121C135.403 28.2749 133.056 29.1064 129.858 29.1064C124.204 29.1064 121.058 25.8894 120.418 19.4554Z" fill="#FFF6FF"/>
<path d="M108.674 28.6063V5.23684H101.824V0.478516H120.148V5.23684H113.317V28.6063H108.674Z" fill="#FFF6FF"/>
<path d="M96.565 18.2658L101.074 20.0118C100.37 23.1585 99.2 25.4609 97.5627 26.9191C95.9255 28.3645 93.9109 29.0872 91.5189 29.0872C88.513 29.0872 86.0762 27.9296 84.2087 25.6144C82.0598 22.941 80.9854 19.3339 80.9854 14.793C80.9854 9.99632 82.0662 6.2421 84.2279 3.53037C86.1082 1.17679 88.6345 0 91.8067 0C94.3905 0 96.5522 0.882592 98.2918 2.64778C99.5326 3.90131 100.441 5.76243 101.016 8.23113L96.4115 9.57421C96.1173 8.05206 95.5289 6.88806 94.6463 6.08221C93.7765 5.26358 92.7469 4.85426 91.5573 4.85426C89.856 4.85426 88.4682 5.59615 87.3937 7.07992C86.3193 8.5637 85.782 11.0132 85.782 14.4285C85.782 17.9716 86.3065 20.4915 87.3554 21.9881C88.4042 23.4846 89.7665 24.2329 91.4422 24.2329C92.6701 24.2329 93.7318 23.7596 94.6272 22.8131C95.5225 21.8538 96.1685 20.338 96.565 18.2658Z" fill="#FFF6FF"/>
<path d="M80.9078 28.6063H75.8425L73.8279 22.2171H64.6182L62.7187 28.6063H57.7686L66.748 0.478516H71.679L80.9078 28.6063ZM72.3313 17.478L69.1655 7.0404L66.0381 17.478H72.3313Z" fill="#FFF6FF"/>
<path d="M43.7988 28.6063V0.478516H59.6087V5.23684H48.442V11.8947H58.093V16.653H48.442V28.6063H43.7988Z" fill="#FFF6FF"/>
<rect x="39.2314" y="0.478516" width="4.62637" height="28.1283" fill="#FF78FF"/>
<rect x="34.6055" y="0.478516" width="4.62637" height="28.1283" fill="#6AF5FF"/>
<rect x="29.9785" y="0.478516" width="4.62637" height="28.1283" fill="#FDFF6E"/>
<rect x="25.3525" y="0.478516" width="4.62637" height="28.1283" fill="#9CFF5B"/>
<path d="M25.3992 28.6011L20.6797 28.6027L20.6797 20.3517H10.3631L4.71845 28.6027L0 28.6083L19.3515 0.480146L25.4068 0.478516L25.3992 28.6011ZM20.6797 15.39L20.6797 5.38436L13.8328 15.39H20.6797Z" fill="#FFF6FF"/>
</svg>
