<svg width="36" height="36" viewBox="0 0 36 36" fill="none" xmlns="http://www.w3.org/2000/svg">
<path d="M26.5 21.251C29.0195 21.251 31.4362 22.2517 33.2178 24.0332C34.9993 25.8147 36 28.2315 36 30.751C35.9999 32.1432 35.4464 33.4785 34.4619 34.4629C33.4774 35.4473 32.1423 36 30.75 36H5.25C3.85774 36 2.52263 35.4473 1.53809 34.4629C0.553604 33.4785 9.96802e-05 32.1432 0 30.751C0 28.2315 1.00067 25.8147 2.78223 24.0332C4.56383 22.2517 6.98046 21.251 9.5 21.251H26.5ZM9.5 23.251C7.51086 23.251 5.60281 24.0408 4.19629 25.4473C2.7898 26.8537 2 28.762 2 30.751C2.0001 31.6127 2.34275 32.4395 2.95215 33.0488C3.56161 33.6581 4.38816 34 5.25 34H30.75C31.6118 34 32.4384 33.6581 33.0479 33.0488C33.6573 32.4395 33.9999 31.6127 34 30.751C34 28.762 33.2102 26.8537 31.8037 25.4473C30.3972 24.0408 28.4891 23.251 26.5 23.251H9.5ZM18.001 0C22.0738 0.000263885 25.376 3.30217 25.376 7.375C25.3758 11.4477 22.0737 14.7488 18.001 14.749C13.928 14.749 10.6261 11.4479 10.626 7.375C10.626 3.30202 13.9279 1.27557e-05 18.001 0ZM18.001 2C15.0324 2.00001 12.626 4.40668 12.626 7.375C12.6261 10.3432 15.0325 12.749 18.001 12.749C20.9692 12.7488 23.3758 10.343 23.376 7.375C23.376 4.40683 20.9693 2.00026 18.001 2Z" fill="#FFF6FF"/>
</svg>
